<?xml version="1.0" encoding="utf-8"?>
<!-- Generator: Adobe Illustrator 24.1.3, SVG Export Plug-In . SVG Version: 6.00 Build 0)  -->
<svg version="1.1" id="Layer_1" xmlns="http://www.w3.org/2000/svg" xmlns:xlink="http://www.w3.org/1999/xlink" x="0px" y="0px"
	 viewBox="0 0 600 600" style="enable-background:new 0 0 600 600;" xml:space="preserve">
<style type="text/css">
	.st0{fill:#FFFFFF;}
</style>
<g>
	<ellipse transform="matrix(0.7071 -0.7071 0.7071 0.7071 -21.86 177.2254)" class="st0" cx="203" cy="115" rx="8.5" ry="14.1"/>
	<ellipse transform="matrix(0.7071 -0.7071 0.7071 0.7071 -14.2447 195.6102)" class="st0" cx="229" cy="115" rx="8.5" ry="14.1"/>
	<path class="st0" d="M424.9,199.5c7.7,35.5,25.1,61.1,40.3,58.5c15-2.6,22.8-31.5,18.7-66.6c7-2.3,13.6-5,19.4-8
		c-1.2,9,0.4,15.9,4.7,17.6c6.4,2.5,16.6-8,22.6-23.5c4.1-10.5,5.3-20.6,3.6-26.8c-0.1-0.7-0.1-1.5-0.3-2.2
		c-3.7-14.7-33-20.4-67.7-13.8c-7.8-12.9-17-20.3-25.5-18.8c-9.9,1.7-16.7,15-18.9,34c-19.1,10.2-30.4,22.8-27.8,33.4
		C396.3,192.4,408.1,198,424.9,199.5z"/>
	<ellipse class="st0" cx="304" cy="149" rx="60.1" ry="25"/>
	<ellipse class="st0" cx="304" cy="236" rx="72.1" ry="30"/>
	<path class="st0" d="M159,127c-0.4,0-0.7,0-1.1,0c5.4-14.3,5.4-26.2-1.1-32c-12.4-11-43.9,4.3-70.2,34.1
		C60.2,158.9,48.8,192,61.2,203c11.1,9.8,37.4-1.4,61.7-25.2c3.9,2.5,8.6,4.5,13.7,6.1c-0.2,0.3-0.5,0.5-0.7,0.8
		c-26.4,29.8-37.7,62.9-25.3,73.9c12.4,11,43.9-4.3,70.2-34.1c24.4-27.6,35.9-58,27.6-71.1C205.6,138.5,184.5,127,159,127z"/>
	<path class="st0" d="M533.9,387.6c-3.7-14.7-33-20.4-67.7-13.8c-7.8-12.9-17-20.3-25.5-18.8c-9.9,1.7-16.7,15-18.9,34
		c-19.1,10.2-30.4,22.8-27.8,33.4c2.2,9,14.1,14.6,30.8,16.1c7.7,35.5,25.1,61.1,40.3,58.5c15-2.6,22.8-31.5,18.7-66.6
		c7-2.3,13.6-5,19.4-8c-1.2,9,0.4,15.9,4.7,17.6c6.4,2.5,16.6-8,22.6-23.5c4.1-10.5,5.3-20.6,3.6-26.8
		C534.2,389,534.1,388.3,533.9,387.6z"/>
	<ellipse class="st0" cx="304" cy="388" rx="60.1" ry="25"/>
	<ellipse class="st0" cx="304" cy="475" rx="72.1" ry="30"/>
	<path class="st0" d="M159,366c-0.4,0-0.7,0-1.1,0c5.4-14.3,5.4-26.2-1.1-32c-12.4-11-43.9,4.3-70.2,34.1
		C60.2,397.9,48.8,431,61.2,442c11.1,9.8,37.4-1.4,61.7-25.2c3.9,2.5,8.6,4.5,13.7,6.1c-0.2,0.3-0.5,0.5-0.7,0.8
		c-26.4,29.8-37.7,62.9-25.3,73.9c12.4,11,43.9-4.3,70.2-34.1c24.4-27.6,35.9-58,27.6-71.1C205.6,377.5,184.5,366,159,366z"/>
</g>
</svg>
